<?xml version="1.0" encoding="UTF-8" standalone="no"?>
<!DOCTYPE svg PUBLIC "-//W3C//DTD SVG 1.1//EN" "http://www.w3.org/Graphics/SVG/1.1/DTD/svg11.dtd">
<svg xmlns="http://www.w3.org/2000/svg" version="1.1" viewBox="0.00 0.00 512.00 512.00">
<path fill="#000000" d="
  M 200.36 123.98
  A 1.05 1.04 -63.8 0 0 200.05 123.05
  Q 187.17 110.61 174.30 97.91
  C 168.18 91.87 164.51 86.54 166.28 78.28
  C 168.11 69.72 174.77 64.96 183.25 63.74
  Q 202.26 61.01 221.18 58.22
  A 1.00 1.00 0.0 0 0 221.92 57.68
  Q 229.50 42.15 237.27 26.60
  Q 241.20 18.71 244.15 16.06
  C 253.75 7.41 267.52 11.79 272.93 22.81
  Q 281.49 40.28 290.13 57.69
  Q 290.35 58.14 290.86 58.22
  Q 310.13 60.96 329.23 63.81
  C 341.83 65.70 350.01 77.33 344.36 89.51
  Q 342.75 92.97 338.01 97.64
  Q 325.03 110.42 311.92 123.10
  A 1.00 0.99 -27.2 0 0 311.64 123.96
  Q 314.56 140.81 317.39 157.59
  Q 318.95 166.79 318.10 170.91
  C 316.21 180.19 306.13 186.52 296.76 184.39
  Q 293.90 183.74 287.23 180.23
  Q 271.85 172.14 256.46 164.07
  A 0.99 0.96 44.4 0 0 255.55 164.07
  Q 240.05 172.28 224.59 180.32
  Q 216.93 184.30 212.87 184.73
  C 203.77 185.68 194.91 178.68 193.61 169.48
  Q 193.15 166.23 194.35 159.08
  Q 197.31 141.48 200.36 123.98
  Z"
/>
<path fill="#000000" d="
  M 512.00 480.78
  L 512.00 498.06
  Q 510.28 504.49 503.00 504.49
  Q 256.42 504.51 9.84 504.49
  C 4.65 504.49 1.29 503.26 0.00 498.11
  L 0.00 480.64
  C 1.44 475.25 4.93 474.31 10.32 474.32
  Q 19.85 474.35 29.57 474.29
  Q 30.11 474.29 30.11 473.75
  Q 30.12 411.61 30.11 349.49
  C 30.11 341.61 32.04 335.49 39.39 332.52
  Q 42.55 331.25 49.76 331.25
  Q 103.78 331.26 157.72 331.25
  A 0.39 0.39 0.0 0 1 158.11 331.64
  L 158.11 473.91
  A 0.41 0.41 0.0 0 0 158.52 474.32
  L 180.22 474.31
  Q 180.72 474.31 180.72 473.80
  Q 180.73 377.51 180.73 281.25
  C 180.73 273.66 182.77 267.82 189.77 264.85
  Q 192.94 263.51 199.93 263.51
  Q 255.32 263.51 310.71 263.50
  Q 319.18 263.50 322.58 265.01
  C 329.32 268.02 331.27 273.83 331.27 281.24
  Q 331.27 377.53 331.28 473.82
  A 0.49 0.49 0.0 0 0 331.77 474.31
  L 353.32 474.32
  Q 353.89 474.32 353.89 473.75
  L 353.89 369.51
  Q 353.89 368.98 354.42 368.98
  Q 409.46 368.92 464.36 368.97
  C 472.14 368.98 478.41 371.46 480.93 378.98
  Q 481.91 381.93 481.90 390.11
  Q 481.87 432.06 481.89 474.01
  Q 481.89 474.33 482.20 474.33
  Q 493.06 474.30 504.00 474.31
  Q 510.35 474.31 512.00 480.78
  Z"
/>
</svg>
