<?xml version="1.0" encoding="UTF-8" standalone="no"?>
<!DOCTYPE svg PUBLIC "-//W3C//DTD SVG 1.1//EN" "http://www.w3.org/Graphics/SVG/1.1/DTD/svg11.dtd">
<svg xmlns="http://www.w3.org/2000/svg" version="1.1" viewBox="0.00 0.00 512.00 512.00">
<path fill="#000000" d="
  M 200.36 123.98
  A 1.07 1.04 27.3 0 0 200.05 123.05
  Q 187.03 110.48 174.03 97.64
  Q 168.98 92.65 167.42 89.15
  C 161.84 76.61 170.91 65.37 183.49 63.70
  Q 191.17 62.68 221.18 58.20
  A 0.96 0.95 8.7 0 0 221.91 57.67
  Q 230.42 40.42 238.82 23.19
  C 245.83 8.82 265.13 7.07 272.48 21.98
  Q 281.30 39.86 290.14 57.72
  Q 290.37 58.17 290.87 58.24
  Q 308.14 60.62 325.26 63.24
  Q 334.22 64.61 337.78 66.72
  C 345.38 71.22 348.35 81.94 344.30 89.93
  Q 342.77 92.95 337.81 97.84
  Q 324.92 110.52 311.93 123.10
  Q 311.57 123.45 311.65 123.95
  Q 314.49 140.53 317.31 157.03
  Q 318.82 165.90 318.30 169.50
  C 316.49 181.87 302.83 188.46 291.85 182.67
  Q 274.16 173.34 256.45 164.07
  A 0.96 0.96 0.0 0 0 255.55 164.07
  Q 240.09 172.27 224.66 180.28
  Q 216.87 184.33 212.82 184.74
  C 203.76 185.65 194.93 178.67 193.62 169.57
  Q 193.15 166.24 194.45 158.49
  Q 197.36 141.19 200.36 123.98
  Z
  M 227.90 144.58
  Q 236.51 140.13 244.80 135.72
  C 252.82 131.46 256.77 130.18 264.68 134.37
  Q 274.25 139.44 284.03 144.51
  Q 284.57 144.78 284.48 144.19
  Q 282.70 132.56 280.73 120.97
  Q 279.31 112.69 284.90 107.38
  Q 293.41 99.27 301.85 90.81
  Q 302.31 90.34 301.67 90.24
  Q 291.39 88.64 281.09 87.20
  C 274.91 86.33 269.69 84.51 267.09 79.12
  Q 261.80 68.18 256.27 57.24
  Q 255.99 56.69 255.71 57.24
  Q 251.10 66.46 246.56 75.71
  C 243.77 81.39 240.49 85.89 234.49 86.73
  Q 222.45 88.42 210.29 90.28
  Q 209.68 90.37 210.12 90.80
  Q 217.48 98.05 224.88 105.26
  C 229.79 110.04 232.60 114.17 231.46 120.75
  Q 229.41 132.64 227.43 144.23
  Q 227.32 144.88 227.90 144.58
  Z"
/>
<path fill="#000000" d="
  M 512.00 487.61
  L 512.00 491.20
  Q 510.05 500.13 503.13 503.08
  Q 499.80 504.50 489.70 504.50
  Q 254.53 504.50 19.37 504.49
  Q 12.11 504.49 8.84 503.05
  Q 1.77 499.90 0.00 491.16
  L 0.00 487.45
  Q 2.04 478.57 9.08 475.65
  Q 12.41 474.27 22.60 474.31
  Q 29.94 474.34 37.16 474.26
  Q 37.66 474.25 37.66 473.76
  Q 37.65 406.98 37.67 340.91
  Q 37.67 335.77 38.96 332.80
  Q 42.90 323.69 53.75 323.71
  Q 113.20 323.80 172.65 323.72
  Q 173.18 323.72 173.18 323.19
  Q 173.24 302.13 173.20 281.26
  C 173.19 273.67 175.25 267.80 182.25 264.84
  Q 185.41 263.50 192.42 263.51
  Q 255.29 263.51 318.15 263.50
  Q 326.73 263.49 330.14 265.02
  C 336.63 267.92 338.79 273.60 338.79 280.77
  Q 338.79 324.59 338.81 368.42
  Q 338.81 368.94 339.34 368.94
  Q 397.90 368.99 456.40 368.95
  Q 462.21 368.95 465.37 370.27
  Q 474.40 374.05 474.38 384.75
  Q 474.27 429.26 474.36 473.76
  Q 474.36 474.29 474.89 474.29
  Q 482.36 474.35 489.71 474.31
  Q 499.68 474.27 503.07 475.71
  Q 510.08 478.70 512.00 487.61
  Z
  M 308.72 294.02
  A 0.33 0.33 0.0 0 0 308.39 293.69
  L 203.61 293.69
  A 0.33 0.33 0.0 0 0 203.28 294.02
  L 203.28 473.98
  A 0.33 0.33 0.0 0 0 203.61 474.31
  L 308.39 474.31
  A 0.33 0.33 0.0 0 0 308.72 473.98
  L 308.72 294.02
  Z
  M 173.20 354.22
  A 0.36 0.36 0.0 0 0 172.84 353.86
  L 68.12 353.86
  A 0.36 0.36 0.0 0 0 67.76 354.22
  L 67.76 473.96
  A 0.36 0.36 0.0 0 0 68.12 474.32
  L 172.84 474.32
  A 0.36 0.36 0.0 0 0 173.20 473.96
  L 173.20 354.22
  Z
  M 444.24 399.44
  A 0.39 0.39 0.0 0 0 443.85 399.05
  L 339.19 399.05
  A 0.39 0.39 0.0 0 0 338.80 399.44
  L 338.80 473.92
  A 0.39 0.39 0.0 0 0 339.19 474.31
  L 443.85 474.31
  A 0.39 0.39 0.0 0 0 444.24 473.92
  L 444.24 399.44
  Z"
/>
</svg>
